<?xml version="1.0"?><svg width="1600" height="1200" xmlns="http://www.w3.org/2000/svg">
 <title>GIRL RUNNING</title>

 <g>
  <title>Layer 1</title>
  <g id="svg_2">
   <path fill="#ff007f" id="svg_3" d="m58.634735,1144.380737c3.179993,-8.55957 7.105019,-16.91333 12.735527,-24.270142c75.757759,-100.725342 153.95536,-199.753967 229.812782,-300.39856c25.38092,-34.741882 52.64566,-68.169922 79.903259,-101.573242c11.460083,-12.637512 22.270416,-26.146301 36.214203,-36.431091c20.851379,-15.001282 53.897461,-8.053955 66.936432,13.597412c15.36496,29.6922 5.331879,64.932007 -16.709473,88.695068c-57.28833,61.415588 -120.638214,117.218445 -183.816223,172.993835c-60.247986,54.512329 -121.482529,108.015381 -184.153801,159.967407c-13.279091,9.569946 -25.096199,21.693848 -40.922707,27.419312z"/>
   <path fill="#ff007f" id="svg_5" d="m446.062561,623.818298c6.078918,-19.898315 32.632782,-35.097229 57.766205,-47.28125c108.798737,1.516113 191.829071,43.48999 267.574921,82.956909c35.358276,19.756104 76.154968,41.624146 77.607849,75.637024c-4.071106,16.476074 -16.841431,32.380249 -30.200378,47.421509c-63.190247,66.411133 -155.127502,120.651855 -248.378479,170.620483c-40.7995,21.092529 -79.422119,44.127258 -121.74353,63.870483l-9.524231,1.284912c22.798553,-26.302185 54.807098,-49.307739 79.675354,-74.896667c62.781128,-64.453857 123.365051,-129.685425 192.414734,-191.958984c-39.195068,-10.56543 -82.777466,-15.465454 -120.750854,-27.532532c-44.426758,-13.678223 -87.314606,-30.289612 -119.135406,-53.979309c-16.650513,-12.115295 -28.599457,-28.337769 -25.306183,-46.142578z"/>
   <path id="svg_10" fill="#ff007f" d="m631.877563,421.27066c-15.68219,7.589478 -22.331238,23.597351 -26.725647,38.222412c27.769897,50.340668 84.163391,79.001862 136.62323,104.867706c25.637756,11.755615 54.4198,25.540833 84.105957,18.087769c13.219177,-5.835632 23.828979,-15.588501 33.551331,-25.409424c41.904053,-45.322723 66.32019,-101.13324 86.732544,-156.534882c8.26709,-24.055206 18.738098,-47.560638 25.471375,-72.002625l-1.208435,-4.745667c-17.137878,16.911682 -29.192932,37.327576 -45.212463,55.033508c-40.315491,44.664185 -81.836121,88.490295 -118.746704,135.554657c-18.644958,-15.740509 -33.47113,-34.879944 -53.113953,-49.692139c-22.601685,-17.434418 -47.358887,-33.450409 -75.528809,-42.61734c-14.497864,-4.863586 -31.394531,-6.554535 -45.948425,-0.763977z"/>
   <path fill="#ff007f" id="svg_7" d="m704.378967,162.401764c40.250305,-3.474442 82.788635,11.86142 108.052307,41.507324c17.764526,18.58345 25.619873,43.316742 28.486938,67.5448c-1.586548,28.099426 -12.397949,56.544128 -34.02063,76.85968c-32.868347,33.579102 -89.129639,45.02301 -134.373596,27.975769c-61.900879,-19.604156 -98.337769,-92.803894 -67.423523,-147.775864c17.113464,-36.84729 56.8125,-61.425903 99.278503,-66.11171z"/>
   <path id="svg_12" fill="#ff007f" d="m598.401978,404.599731c18.547913,-9.980072 25.693787,-24.885315 30.189636,-38.112274c-36.424866,-35.554352 -106.264404,-46.360809 -171.187683,-55.748993c-31.679138,-3.849152 -67.276489,-8.661407 -102.775543,4.46109c-15.666046,7.943695 -27.95578,18.549744 -39.167328,29.006317c-48.155914,47.566986 -74.563797,99.82019 -96.150696,150.801392c-8.651932,21.997192 -20.001541,44.048035 -26.775864,66.011414l1.728455,3.679565c19.785583,-18.098267 33.225143,-37.93927 51.61322,-56.440308c46.270584,-46.648071 94.046066,-92.876923 136.062454,-140.736115c23.442139,8.800537 42.45462,21.325806 67.052185,29.119995c28.324677,9.294434 59.17749,16.904053 93.774872,18.004089c17.814148,0.687958 38.352356,-1.829712 55.636292,-10.046173z"/>
   <path id="svg_13" fill="#ff007f" d="m690.759338,193.599442c10.877991,-4.156723 16.870483,-16.053299 21.267517,-27.121262c-12.379333,-43.175148 -45.458679,-72.561508 -76.316284,-99.267334c-15.176086,-12.349957 -32.150085,-26.680405 -51.995911,-24.289688c-9.108826,3.058868 -16.966919,9.530254 -24.263,16.160744c-31.769836,30.950089 -53.454346,72.280708 -72.52655,113.761253c-7.898834,18.081345 -17.1521,35.466003 -24.108765,54.035431l0.263,3.903305c12.81781,-11.37088 22.753571,-26.12001 34.939789,-38.252808c30.679962,-30.61618 62.042328,-60.425858 90.797028,-93.347069c10.260742,14.679352 17.705017,31.599739 28.706055,45.662025c12.615845,16.489944 26.767273,32.111359 43.846863,42.710007c8.774536,5.570068 19.430115,8.910477 29.390259,6.045395z"/>
  </g>
 </g>
</svg>