<?xml version="1.0" encoding="utf-8"?>
<!-- Generator: Adobe Illustrator 15.0.0, SVG Export Plug-In . SVG Version: 6.00 Build 0)  -->
<!DOCTYPE svg PUBLIC "-//W3C//DTD SVG 1.1//EN" "http://www.w3.org/Graphics/SVG/1.1/DTD/svg11.dtd">
<svg version="1.1" id="Layer_2" xmlns="http://www.w3.org/2000/svg" xmlns:xlink="http://www.w3.org/1999/xlink" x="0px" y="0px"
	 width="619.426px" height="835.266px" viewBox="0 0 619.426 835.266" enable-background="new 0 0 619.426 835.266"
	 xml:space="preserve">
<path d="M617.77,371.418c-0.831-7.444-1.994-15.421-3.467-23.716c-0.633-3.52-1.325-7.141-2.115-11.073
	c-1.597-7.911-3.467-16.18-5.554-24.572c-0.936-3.797-1.834-7.246-2.51-9.826c-1.272-4.846-2.387-8.862-3.199-11.794l-0.413-1.486
	c-0.827-2.988-2.135-6.922-3.879-11.681c-1.121-3.09-2.439-6.561-3.916-10.315c-2.683-6.835-5.863-14.586-9.196-22.41
	c-2.104-4.969-4.27-9.988-6.438-14.918c-4.441-10.096-8.665-19.318-11.894-25.967c-3.211-6.624-7.88-13.601-13.874-20.729
	c-2.971-3.553-6.251-7.118-9.753-10.594c-8.564-8.508-17.948-15.966-25.746-20.459c-13.337-7.695-36.36-8.525-45.64-8.525
	c-9.285,0-18.186,0.721-25.734,2.084c-16.471,2.968-26.169,7.009-37.069,15.444c-1.987,1.543-4.122,3.304-6.709,5.539
	c-0.802,0.688-1.648,1.526-2.516,2.486c-12.453,13.769-25.374,49.69-25.914,51.205c-0.476,1.319-0.951,2.71-1.415,4.15
	c-1.005,3.122-1.983,6.564-2.908,10.228c-1.672,6.632-3.251,14.159-4.692,22.374c-0.626,3.571-1.228,7.284-1.789,11.037
	c-1.09,7.282-2.071,14.854-2.919,22.508c-0.442,4.009-0.857,8.146-1.271,12.648c-0.662,7.279-1.196,14.376-1.587,21.093
	c-0.286,4.781-0.507,9.354-0.655,13.598c-0.285,8.453-0.348,15.999-0.186,22.442c0.036,1.185,0.07,2.324,0.118,3.426
	c1.32,31.707,13.554,62.766,21.649,83.316c0.942,2.393,1.832,4.652,2.647,6.765c8.336,21.616,17.391,47.688,21.321,77.17
	c3.653,27.406-0.493,68.793-3.29,91.027c-0.646,5.162-1.374,10.462-2.222,16.191c-0.234,1.563-0.458,3.194-0.683,4.897l-0.209,1.675
	c-0.212,1.668-0.424,3.396-0.608,5.154l-0.245,2.222c-0.084,0.746-0.165,1.492-0.233,2.206c-0.272,2.549-0.532,5.286-0.772,8.13
	c-0.105,1.208-0.21,2.426-0.303,3.628c-0.1,1.171-0.189,2.354-0.279,3.535l-0.012,0.146c-0.058,0.687-0.105,1.384-0.153,2.092
	l-0.209,2.974c-0.223,3.139-0.42,6.313-0.597,9.506c-0.092,1.749-0.186,3.509-0.272,5.346c-0.033,0.648-0.067,1.296-0.089,1.912
	c-0.081,1.766-0.163,3.531-0.221,5.269c-0.294,7.342-0.466,14.507-0.514,21.29c-0.022,2.639-0.022,5.219-0.012,7.716l0.036,3.241
	c0,0.529,0.011,1.059,0.023,1.607c0.034,2.018,0.081,3.977,0.151,5.867l0.141,3.614c0.06,1.288,0.118,2.542,0.199,3.719
	c0.06,1.003,0.119,1.981,0.188,2.938c0.112,1.472,0.271,2.942,0.473,4.349c0.1,0.747,0.211,1.494,0.338,2.176
	c0.441,2.631,1.049,5.305,1.787,7.895c0.114,0.429,0.241,0.857,0.356,1.235c0.147,0.516,0.308,1.033,0.469,1.55l0.037,0.121
	c0.236,0.721,0.486,1.441,0.733,2.162c0.402,1.174,0.849,2.368,1.371,3.674l0.063,0.156c0.214,0.524,0.429,1.048,0.64,1.553
	c0.149,0.363,0.299,0.725,0.45,1.064c0.471,1.072,0.951,2.142,1.45,3.159c0.273,0.584,0.56,1.17,0.834,1.729
	c0.092,0.19,0.188,0.379,0.281,0.566l0.153,0.303c0.354,0.687,0.721,1.384,1.087,2.067c0.688,1.288,1.451,2.643,2.39,4.238
	c0.377,0.656,0.766,1.301,1.159,1.931c0.23,0.376,0.474,0.766,0.665,1.058c0.249,0.42,0.512,0.829,0.74,1.163
	c0.478,0.753,0.968,1.495,1.457,2.223c0.673,1.004,1.359,1.996,2.065,3.003c0.755,1.062,1.522,2.111,2.301,3.161
	c0.785,1.059,1.594,2.106,2.397,3.12c0.587,0.751,1.169,1.49,1.758,2.209c1.815,2.234,3.77,4.519,5.807,6.787l0.134,0.148
	c0.563,0.63,1.121,1.25,1.664,1.824c2.13,2.329,4.422,4.698,6.99,7.226c0.393,0.394,0.798,0.786,1.192,1.17
	c10.588,10.272,26.063,15.479,45.998,15.479c13.019,0,28.172-2.228,45.028-6.618c0.723-0.185,1.434-0.392,2.089-0.588
	c0.115-0.032,0.221-0.066,0.293-0.09c0.515-0.16,1.028-0.32,1.532-0.503c0.541-0.173,1.097-0.371,1.688-0.601l0.681-0.011
	l0.424-0.425l0.116-0.045c0.403-0.154,0.798-0.314,1.193-0.482l0.561-0.243c1.031-0.45,2.091-0.953,3.122-1.48
	c0.521-0.261,1.041-0.545,1.536-0.816c0.508-0.271,1.014-0.557,1.52-0.864c0.535-0.299,1.069-0.623,1.527-0.917
	c0.535-0.325,1.062-0.661,1.567-1c0.773-0.509,1.538-1.04,2.296-1.583c1.539-1.096,3.027-2.255,4.389-3.419
	c0.719-0.598,1.427-1.208,2.101-1.822c0.66-0.591,1.31-1.203,2.035-1.891c1.226-1.169,2.491-2.467,3.875-3.971
	c2.369-2.587,4.715-5.439,6.971-8.475c1.029-1.378,2.05-2.826,3.137-4.444l0.479-0.72c0.272-0.408,0.542-0.813,0.816-1.234
	c1.733-2.688,3.37-5.429,4.852-8.135c0.417-0.753,0.823-1.494,1.208-2.226c2.018-3.785,3.926-7.773,5.668-11.847
	c0.298-0.69,0.584-1.367,0.855-2.031c0.272-0.658,0.54-1.317,0.802-1.967c0.263-0.656,0.512-1.301,0.762-1.961l0.903-2.442
	c0.124-0.351,0.25-0.688,0.39-1.072c0.604-1.73,1.15-3.393,1.623-4.929c0.667-2.143,1.302-5.153,1.944-9.22l0.079-0.505
	c0.048-0.295,0.093-0.596,0.139-0.904c0.069-0.392,0.131-0.804,0.182-1.216c0.07-0.427,0.129-0.854,0.188-1.29l0.17-1.264
	c0.051-0.335,0.099-0.681,0.137-1.025c0.081-0.563,0.152-1.124,0.221-1.683l0.517-4.326c0.046-0.371,0.089-0.747,0.128-1.111
	c0.46-4.15,0.887-8.369,1.272-12.566l0.254-2.883c0.268-2.937,0.523-5.956,0.769-9.031l0.468-6.041
	c0.313-4.119,0.615-8.308,0.908-12.502c0.544-8.059,1.019-15.893,1.372-21.825c0.242-4.324,0.477-8.511,0.685-12.503l0.16-3.04
	c0.044-0.798,0.088-1.586,0.117-2.322l0.252-4.996c0.041-0.815,0.08-1.612,0.122-2.4l0.107-2.297
	c0.012-0.377,0.031-0.756,0.057-1.182l0.159-3.672c0.041-0.818,0.078-1.611,0.11-2.401l0.068-1.656
	c0.034-0.899,0.068-1.742,0.104-2.552l0.036-0.959c0.014-0.571,0.034-1.106,0.052-1.609l0.103-3.553
	c0.012-0.453,0.021-0.961,0.043-1.536c0.474-15.202,3.803-75.647,6.609-97.296c1.225-9.433,3.458-22.458,6.039-37.541
	c3.451-20.134,7.745-45.191,11.095-70.487C619.961,404.517,619.78,389.174,617.77,371.418z M612.551,416.257
	c-3.335,25.186-7.618,50.183-11.061,70.27c-2.594,15.143-4.835,28.222-6.076,37.772c-2.789,21.513-5.953,78.336-6.598,96.211
	h-51.821l0.093,1.831c0.139,2.704,0.243,5.553,0.313,8.468c0.204,8.836,0.268,17.433,0.187,25.556l-0.019,1.76h49.604
	c-0.153,2.905-0.321,5.912-0.494,8.992h-49.274l-0.048,1.692c-0.218,7.578-0.577,14.884-1.066,21.718l-0.135,1.866h48.929
	c-0.211,3.011-0.429,6.012-0.653,8.992h-49.042l-0.163,1.563c-0.66,6.397-1.445,12.399-2.333,17.835l-0.331,2.021h50.078
	c-0.285,3.001-0.592,6.01-0.916,9.004h-50.861l-0.3,1.37c-4.753,21.806-12.032,37.372-21.633,46.269l-1.219,1.128l28.438,33.881
	c0.378,0.445,0.643,0.952,0.817,1.484c-0.352,0.231-0.712,0.463-1.123,0.712c-0.436,0.279-0.88,0.551-1.327,0.799l-0.105,0.06
	c-0.429,0.263-0.857,0.503-1.311,0.747c-0.457,0.25-0.909,0.498-1.389,0.738c-0.765,0.391-1.529,0.759-2.28,1.098l-0.228,0.1
	l-29.082-34.661l-1.192,0.52c-4.482,1.95-9.311,2.899-14.767,2.899c-8.01,0-15.678-2.655-22.18-7.676l-1.324-1.022l-27.557,32.844
	c-1.944-1.95-3.73-3.813-5.424-5.661c-0.279-0.296-0.548-0.601-0.821-0.901l27.527-32.813l-0.833-1.105
	c-7.549-10.044-12.592-24.265-14.988-42.269l-0.201-1.514h-42.894l-0.034-3.067c-0.01-1.935-0.007-3.92,0.003-5.935h42.046
	l-0.115-1.853c-0.413-6.608-0.525-13.69-0.333-21.046l0.044-1.787h-41.046c0.046-1.13,0.09-2.254,0.144-3.406
	c0.021-0.614,0.054-1.229,0.09-1.954c0.058-1.218,0.123-2.431,0.187-3.643h41.062l0.107-1.627
	c0.454-6.843,1.158-14.138,2.094-21.683l0.243-1.957H398.25c0.188-2.088,0.38-4.128,0.586-6.056
	c0.068-0.717,0.148-1.434,0.228-2.158l0.088-0.788h42.062l0.227-1.48c1.008-6.607,2.191-13.492,3.521-20.467
	c0.476-2.528,0.951-4.975,1.415-7.342l0.407-2.076h-43.502c2.818-22.942,6.65-63.21,3.023-90.413
	c-1.206-9.052-2.89-17.771-4.873-26.145c0.997,2.338,3.302,3.896,5.865,3.896l0,0c0.745,0,1.48-0.131,2.184-0.388l71.904-26.17
	c3.311-1.205,5.023-4.879,3.819-8.188c-0.915-2.517-3.329-4.206-6.003-4.206c-0.746,0-1.481,0.129-2.186,0.387l-71.905,26.172
	c-2.71,0.986-4.347,3.629-4.19,6.37c-4.555-18.607-10.577-35.448-16.274-50.22c-0.819-2.126-1.716-4.397-2.663-6.804
	c-2.213-5.621-4.743-12.065-7.269-19.067c2.426,3.647,5.53,5.621,9.143,5.621l0.251-0.004c2.308-0.056,6.319-0.084,11.927-0.084
	c9.269,0,19.955,0.078,21.036,0.088l0.171,0.004c0.836,0,1.637-0.4,2.197-1.098c1.118-1.396,1.247-3.814,0.403-7.612
	c-0.194-0.879-0.388-1.833-0.588-2.828c-0.012-0.059-0.024-0.12-0.035-0.178c0.385,0.727,0.876,1.422,1.473,2.059
	c1.745,1.854,4.111,2.919,6.493,2.919c0.001,0,0,0,0.001,0c1.875,0,3.626-0.675,4.931-1.901l20.617-19.381
	c1.521-1.428,2.306-3.435,2.211-5.649c-0.09-2.118-0.985-4.184-2.521-5.816c-1.743-1.856-4.109-2.92-6.492-2.92
	c-1.877,0-3.627,0.675-4.931,1.901l-20.62,19.381c-1.33,1.25-2.053,2.927-2.186,4.706c-1.495-6.127-3.95-12.271-9.685-12.436
	c-2.016-0.057-5.629-0.086-10.742-0.086c-8.681,0-18.843,0.085-18.93,0.086c-0.195,0-4.807,0.034-7.373,3.037
	c-1.324,1.551-1.843,3.537-1.563,5.899c-2.544-8.178-4.847-16.844-6.521-25.76c1.73,5.474,5.97,10.832,16.36,11.208
	c2.524,0.092,5.014,0.23,7.415,0.365c3.641,0.203,7.081,0.396,10.15,0.396c0.001,0,0.002,0,0.002,0
	c6.714,0,10.453-0.972,12.502-3.251c1.259-1.4,1.779-3.229,1.543-5.438c-0.16-1.507-0.223-3.109-0.284-4.658
	c-0.293-7.422-0.655-16.66-14.01-16.842c-13.201-0.183-25.207,1.332-26.803,1.542c-0.115-0.005-0.274-0.011-0.467-0.011
	c-3.676,0-7.604,1.734-7.604,6.601v0.19c-0.001,0.839,0,1.888,0.06,3.062c-0.757-5.122-1.298-10.293-1.515-15.477
	c-0.021-0.492-0.035-1.018-0.053-1.525h45.269v-25.743h-45.074c0.123-3.162,0.284-6.493,0.481-9.952l43.036,1.292v-24.197
	l-41.191-1.553c0.299-3.166,0.601-6.167,0.913-9.077l44.162,2.323l0.332-1.419c1.555-6.626,3.075-22.604,3.14-23.281l0.174-1.835
	l-44.428-1.694c0.388-2.512,0.789-4.992,1.206-7.419l43.426,2.945l0.348-1.426c1.706-7.021,6.123-20.646,6.167-20.784l0.674-2.071
	l-45.215-4.189c0.617-2.33,1.257-4.541,1.907-6.622l46.536,4.586l0.051-1.871c0.364-13.229,12.325-29.838,12.446-30.005l0.955-1.315
	l-32.244-27.062c0.238-0.228,0.479-0.458,0.704-0.652c2.038-1.761,3.77-3.202,5.371-4.477l27.564,28.072l1.165-0.661
	c0.13-0.074,13.206-7.381,29.352-7.381c13.286,0,24.784,4.861,34.178,14.45l1.032,1.052l35.222-24.537
	c2.492,2.512,4.854,5.06,7.062,7.615l-36.799,21.83l1.031,1.53c3.065,4.553,11.257,17.556,12.316,22.988l0.229,1.181l1.186,0.203
	c0.17,0.029,17.056,2.892,31.974,2.892c7.342,0,13.055-0.703,17.1-2.072c1.484,3.388,2.96,6.8,4.416,10.215l-50.131-2.631
	l9.641,26.219l51.17,2.336c0.933,2.379,1.8,4.636,2.586,6.748l-47.947-1.558l8.651,27.611l47.918,2.15
	c0.463,1.766,1.006,3.86,1.581,6.153l-48.062-3.472l5.94,28.241l48.493,3.252c0.512,2.579,0.988,5.037,1.429,7.415l-48.12-4.071
	l3.339,27.06l48.786,4.082C613.958,390.038,614.106,404.503,612.551,416.257z M611.083,395.815c0.3,5.673-3.81,8.096-6.024,8.585
	l-0.186,0.041h-31.933c-2.6,0-4.515-0.654-5.855-1.997c-2.3-2.31-2.29-6.003-2.278-10.279c0.007-1.977,0.014-4.021-0.192-6.143
	c-0.297-3.077,0.261-5.418,1.659-6.958c1.129-1.245,2.754-1.901,4.695-1.901c0.936,0,1.725,0.153,2.153,0.257
	c1.563-0.082,9.43-0.469,17.061-0.469c3.303,0,6.166,0.072,8.507,0.215C610.133,377.863,610.775,389.988,611.083,395.815z
	 M608.095,414.999c2.512,3.301,1.699,8.648,0.672,15.416l-0.324,2.16c-1.119,7.6-11.753,7.625-15.307,7.625
	c-0.011,0-0.022,0-0.034,0c-4.35,0-9.022-0.479-13.146-0.9c-2.677-0.273-5.204-0.532-7.07-0.589
	c-2.595-0.081-4.661-0.958-6.144-2.606c-3.262-3.629-2.782-9.984-2.395-15.09c0.083-1.077,0.16-2.089,0.189-2.984
	c0.184-5.337,3.181-7.24,5.926-7.24c0.293,0,0.529,0.022,0.686,0.043c2.006,0.049,24.624,0.611,31.71,1.461
	C605.18,412.574,606.942,413.483,608.095,414.999z M439.525,199.183c1.719-2.351,4.35-3.754,7.036-3.754
	c1.534,0,2.978,0.464,4.176,1.341l22.842,16.706c1.684,1.231,2.709,3.127,2.886,5.337c0.169,2.113-0.467,4.271-1.788,6.08
	c-1.72,2.351-4.351,3.754-7.037,3.754c-1.533,0-2.978-0.464-4.175-1.34L440.622,210.6
	C437.229,208.118,436.737,202.996,439.525,199.183z M439.525,228.979c1.719-2.351,4.35-3.754,7.036-3.754
	c1.534,0,2.978,0.464,4.176,1.341l22.842,16.706c1.684,1.232,2.709,3.127,2.886,5.338c0.169,2.112-0.467,4.271-1.788,6.079
	c-1.72,2.351-4.351,3.754-7.037,3.754c-1.533,0-2.978-0.464-4.175-1.34l-22.843-16.707
	C437.229,237.914,436.737,232.792,439.525,228.979z M467.771,285.628l-22.842-16.707c-3.393-2.482-3.886-7.604-1.097-11.417
	c1.718-2.351,4.351-3.754,7.037-3.754c1.533,0,2.977,0.464,4.177,1.341l22.841,16.706c1.684,1.231,2.709,3.127,2.886,5.337
	c0.169,2.113-0.468,4.271-1.788,6.08c-1.72,2.35-4.352,3.753-7.037,3.753C470.414,286.968,468.971,286.504,467.771,285.628z
	 M520.927,276.251c1.265,0,2.441,0.372,3.404,1.078l19.397,14.187c1.514,1.107,2.385,2.969,2.385,5.105
	c0,1.965-0.709,4.021-2.003,5.788c-1.811,2.477-4.528,4.014-7.093,4.014c-1.264,0-2.44-0.372-3.405-1.077l-19.396-14.188
	c-1.516-1.108-2.385-2.968-2.385-5.105c-0.003-1.965,0.71-4.021,2.004-5.789C515.646,277.79,518.364,276.251,520.927,276.251z
	 M529.899,304.142l22.841,16.706c3.394,2.482,3.886,7.604,1.098,11.417c-1.72,2.351-4.35,3.754-7.036,3.754
	c-1.533,0-2.979-0.464-4.176-1.339l-22.841-16.707c-1.685-1.232-2.71-3.127-2.887-5.336c-0.17-2.112,0.465-4.272,1.788-6.081
	c1.72-2.351,4.35-3.754,7.037-3.754C527.255,302.801,528.701,303.265,529.899,304.142z M533.152,337.831l22.841,16.706
	c3.395,2.481,3.887,7.603,1.099,11.417c-1.72,2.35-4.35,3.752-7.036,3.752c-1.534,0-2.979-0.463-4.177-1.339l-22.841-16.706
	c-1.684-1.232-2.709-3.127-2.886-5.337c-0.17-2.112,0.465-4.271,1.788-6.081c1.72-2.349,4.35-3.752,7.037-3.752
	C530.508,336.489,531.955,336.954,533.152,337.831z M521.94,368.187c1.72-2.351,4.35-3.753,7.037-3.753
	c1.531,0,2.978,0.464,4.175,1.34l22.841,16.706c3.395,2.482,3.887,7.604,1.099,11.417c-1.72,2.351-4.35,3.754-7.036,3.754
	c-1.534,0-2.979-0.464-4.177-1.34l-22.841-16.707c-1.684-1.232-2.709-3.126-2.886-5.336
	C519.982,372.155,520.617,369.995,521.94,368.187z M536.387,395.506l22.841,16.706c3.394,2.481,3.887,7.603,1.099,11.417
	c-1.72,2.352-4.35,3.753-7.036,3.753c-1.534,0-2.979-0.463-4.177-1.34l-22.841-16.706c-1.683-1.232-2.709-3.127-2.886-5.337
	c-0.17-2.112,0.465-4.271,1.788-6.081c1.72-2.349,4.35-3.752,7.037-3.752C533.744,394.165,535.19,394.629,536.387,395.506z
	 M548.128,449.957l-18.576-13.586c-2.955-2.161-3.045-6.892-0.209-10.77c1.84-2.516,4.561-4.08,7.094-4.08
	c1.202,0,2.319,0.353,3.231,1.02l18.575,13.587c1.481,1.083,2.305,2.924,2.264,5.052c-0.038,1.928-0.769,3.957-2.053,5.716
	c-1.843,2.518-4.561,4.08-7.098,4.08C550.158,450.975,549.039,450.623,548.128,449.957z M452.334,281.72
	c1.533,0,2.977,0.463,4.177,1.341l22.841,16.706c1.683,1.231,2.708,3.126,2.885,5.336c0.17,2.112-0.465,4.272-1.788,6.081
	c-1.719,2.35-4.35,3.752-7.036,3.752c-1.533,0-2.978-0.462-4.177-1.339l-22.841-16.706c-3.395-2.483-3.887-7.604-1.098-11.417
	C447.017,283.123,449.648,281.72,452.334,281.72z M448.401,316.494c1.72-2.35,4.351-3.753,7.038-3.753
	c1.532,0,2.977,0.462,4.176,1.34l22.841,16.706c1.684,1.23,2.709,3.126,2.886,5.336c0.169,2.113-0.467,4.272-1.789,6.081
	c-1.719,2.351-4.349,3.753-7.035,3.753c-1.534,0-2.978-0.463-4.178-1.34l-22.841-16.706
	C446.105,325.428,445.612,320.307,448.401,316.494z M450.084,344.02c1.72-2.351,4.352-3.754,7.038-3.754
	c1.533,0,2.977,0.464,4.177,1.341l22.841,16.706c1.684,1.232,2.709,3.127,2.886,5.337c0.168,2.113-0.467,4.271-1.788,6.08
	c-1.719,2.351-4.351,3.753-7.038,3.753c-1.533,0-2.977-0.463-4.176-1.339l-22.842-16.707
	C447.79,352.955,447.296,347.833,450.084,344.02z M477.223,403.101l-22.843-16.706c-3.394-2.483-3.885-7.604-1.097-11.417
	c1.719-2.351,4.35-3.754,7.035-3.754c1.534,0,2.979,0.463,4.177,1.341l22.841,16.706c1.684,1.231,2.71,3.126,2.887,5.337
	c0.169,2.112-0.467,4.272-1.788,6.08c-1.72,2.351-4.351,3.753-7.038,3.753C479.864,404.441,478.42,403.978,477.223,403.101z
	 M455.682,404.035c1.719-2.35,4.35-3.753,7.035-3.753c1.533,0,2.979,0.462,4.177,1.34l22.841,16.706
	c1.684,1.23,2.709,3.126,2.887,5.336c0.169,2.112-0.467,4.273-1.788,6.081c-1.72,2.35-4.351,3.753-7.039,3.753
	c-1.532,0-2.977-0.463-4.174-1.34l-22.842-16.706C453.385,412.969,452.893,407.848,455.682,404.035z M485.184,463.23
	c-1.534,0-2.977-0.464-4.177-1.341l-22.841-16.705c-3.393-2.482-3.885-7.604-1.097-11.417c1.719-2.35,4.35-3.754,7.036-3.754
	c1.534,0,2.978,0.463,4.177,1.341l22.841,16.706c1.684,1.23,2.709,3.127,2.886,5.336c0.171,2.113-0.465,4.272-1.787,6.08
	C490.502,461.828,487.871,463.23,485.184,463.23z M494.16,209.809c1.303-1.225,3.054-1.9,4.93-1.9c2.383,0,4.749,1.064,6.494,2.919
	c1.533,1.633,2.43,3.698,2.52,5.816c0.096,2.215-0.688,4.222-2.209,5.649l-20.618,19.382c-1.305,1.225-3.055,1.9-4.932,1.9l0,0
	c-2.383,0-4.749-1.064-6.493-2.919c-3.235-3.443-3.374-8.586-0.311-11.466L494.16,209.809z M469.886,206.232
	c0.053-1.171,0.585-2.191,1.499-2.871l12.167-9.078c0.754-0.562,1.724-0.857,2.81-0.857c1.855,0,3.92,0.856,5.521,2.291
	c1.63,1.459,2.521,3.256,2.444,4.932c-0.053,1.17-0.585,2.191-1.499,2.872l-12.166,9.077c-0.754,0.561-1.725,0.857-2.81,0.857l0,0
	c-1.856,0-3.919-0.856-5.522-2.29C470.703,209.705,469.812,207.908,469.886,206.232z M412.708,300.14
	c-3.236-3.443-3.375-8.587-0.312-11.466l20.619-19.381c1.303-1.226,3.055-1.9,4.931-1.9c2.382,0,4.749,1.064,6.492,2.919
	c1.534,1.633,2.431,3.698,2.522,5.816c0.095,2.214-0.69,4.221-2.213,5.649l-20.617,19.381c-1.303,1.226-3.055,1.9-4.93,1.9l0,0
	C416.819,303.059,414.452,301.995,412.708,300.14z M415.082,265.68c-2.531-2.758-2.577-6.935-0.104-9.313l15.689-15.077
	c1.09-1.047,2.547-1.625,4.102-1.625c1.886,0,3.741,0.842,5.09,2.311c2.534,2.757,2.579,6.935,0.102,9.313l-15.688,15.077
	c-1.091,1.047-2.547,1.625-4.102,1.625C418.287,267.991,416.431,267.148,415.082,265.68z M419.201,337.244
	c-2.382,0-4.749-1.064-6.493-2.919c-3.236-3.444-3.375-8.587-0.312-11.466l20.619-19.381c1.303-1.227,3.055-1.902,4.931-1.902
	c2.382,0,4.749,1.064,6.492,2.92c1.534,1.633,2.431,3.698,2.522,5.816c0.095,2.214-0.69,4.221-2.213,5.649l-20.617,19.381
	C422.828,336.569,421.076,337.244,419.201,337.244L419.201,337.244z M422.304,363.273c-2.383,0-4.749-1.064-6.494-2.918
	c-3.235-3.444-3.373-8.588-0.31-11.467l20.619-19.381c1.303-1.226,3.054-1.901,4.93-1.901c2.383,0,4.749,1.064,6.492,2.92
	c1.535,1.632,2.432,3.698,2.522,5.816c0.095,2.214-0.689,4.222-2.212,5.649l-20.617,19.381
	C425.931,362.599,424.18,363.273,422.304,363.273L422.304,363.273z M452.734,371.157l-20.617,19.381
	c-1.305,1.226-3.056,1.9-4.931,1.9c-0.001,0,0,0-0.001,0c-2.382,0-4.748-1.064-6.493-2.918c-3.234-3.443-3.375-8.587-0.312-11.466
	L441,358.672c1.304-1.226,3.054-1.9,4.931-1.9c2.383,0,4.749,1.064,6.492,2.918c1.536,1.634,2.432,3.699,2.521,5.817
	C455.04,367.721,454.254,369.729,452.734,371.157z M456.623,428.306l-20.617,19.381c-1.303,1.226-3.054,1.901-4.93,1.901
	c0,0,0,0-0.001,0c-2.381,0-4.748-1.064-6.492-2.92c-3.235-3.442-3.375-8.586-0.312-11.465l20.619-19.382
	c1.303-1.226,3.055-1.9,4.932-1.9c2.382,0,4.748,1.064,6.492,2.919c1.534,1.633,2.431,3.698,2.521,5.816
	C458.931,424.872,458.145,426.877,456.623,428.306z M505.082,234.405c2.382,0,4.749,1.064,6.491,2.919
	c1.536,1.634,2.433,3.698,2.523,5.816c0.095,2.214-0.692,4.221-2.213,5.649l-20.616,19.382c-1.305,1.226-3.057,1.9-4.931,1.9
	c-0.001,0,0,0-0.001,0c-2.381,0-4.747-1.064-6.492-2.919c-3.236-3.443-3.375-8.586-0.313-11.465l20.621-19.382
	C501.454,235.08,503.206,234.405,505.082,234.405z M513.971,265.811c1.533,1.632,2.43,3.698,2.521,5.816
	c0.095,2.214-0.689,4.221-2.21,5.649l-20.617,19.381c-1.305,1.226-3.056,1.901-4.932,1.901l0,0c-2.383,0-4.75-1.064-6.494-2.918
	c-3.235-3.444-3.374-8.588-0.311-11.467l20.619-19.381c1.303-1.227,3.054-1.901,4.93-1.901
	C509.86,262.891,512.226,263.955,513.971,265.811z M518.664,301.921c0.095,2.214-0.69,4.221-2.21,5.649l-20.617,19.382
	c-1.305,1.226-3.057,1.9-4.933,1.9l0,0c-2.382,0-4.749-1.064-6.493-2.919c-3.236-3.442-3.374-8.586-0.312-11.465l20.619-19.382
	c1.303-1.225,3.055-1.9,4.931-1.9c2.382,0,4.748,1.064,6.493,2.918C517.676,297.738,518.572,299.803,518.664,301.921z
	 M506.404,326.077c1.303-1.227,3.055-1.902,4.932-1.902c2.382,0,4.748,1.064,6.491,2.92c1.536,1.633,2.432,3.698,2.522,5.816
	c0.096,2.214-0.692,4.221-2.213,5.649l-20.617,19.381c-1.304,1.226-3.054,1.901-4.93,1.901c-2.382,0-4.748-1.064-6.493-2.919
	c-3.235-3.444-3.376-8.587-0.313-11.466L506.404,326.077z M489.292,384.104c-3.235-3.444-3.374-8.588-0.312-11.467l20.621-19.38
	c1.302-1.227,3.053-1.901,4.93-1.901c2.382,0,4.749,1.064,6.491,2.92c1.536,1.632,2.433,3.698,2.522,5.816
	c0.096,2.214-0.691,4.221-2.211,5.649l-20.618,19.38c-1.305,1.227-3.054,1.902-4.931,1.902
	C493.404,387.023,491.038,385.959,489.292,384.104z M490.191,404.247l20.62-19.382c1.302-1.225,3.054-1.9,4.93-1.9
	c2.382,0,4.748,1.064,6.493,2.919c1.534,1.633,2.431,3.698,2.521,5.816c0.095,2.214-0.69,4.221-2.21,5.649l-20.617,19.382
	c-1.305,1.225-3.057,1.9-4.933,1.9c-2.382,0-4.749-1.064-6.493-2.919C487.266,412.27,487.128,407.126,490.191,404.247z
	 M492.768,433.066l20.62-19.382c1.302-1.226,3.054-1.901,4.93-1.901c2.383,0,4.75,1.064,6.494,2.92
	c1.534,1.632,2.43,3.698,2.521,5.817c0.096,2.213-0.689,4.221-2.21,5.649l-20.617,19.38c-1.305,1.227-3.056,1.901-4.933,1.901
	c-2.382,0-4.748-1.063-6.493-2.92C489.844,441.087,489.706,435.946,492.768,433.066z M498.892,469.461
	c-3.235-3.442-3.374-8.586-0.313-11.465l20.622-19.381c1.302-1.227,3.054-1.901,4.931-1.901c2.383,0,4.749,1.064,6.491,2.921
	c1.536,1.632,2.433,3.698,2.522,5.815c0.096,2.215-0.692,4.22-2.212,5.649l-20.617,19.381c-1.303,1.227-3.054,1.901-4.93,1.901
	C503.003,472.382,500.637,471.318,498.892,469.461z M445.516,667.181c-3.521-3.995-3.471-10.152,0.109-13.724l25.68-25.585
	c1.631-1.627,3.795-2.524,6.095-2.524c2.652,0,5.234,1.202,7.083,3.3c3.524,3.998,3.474,10.155-0.112,13.725l-25.674,25.587
	c-1.632,1.626-3.796,2.522-6.094,2.522l0,0C449.948,670.482,447.366,669.28,445.516,667.181z M485.46,657.939
	c3.523,3.998,3.473,10.155-0.113,13.726l-25.673,25.586c-1.633,1.626-3.798,2.522-6.096,2.522c-0.001,0-0.001,0-0.001,0
	c-2.651,0-5.234-1.202-7.085-3.301c-3.521-3.996-3.472-10.152,0.11-13.724l25.678-25.585c1.632-1.627,3.796-2.524,6.094-2.524
	C481.028,654.639,483.61,655.841,485.46,657.939z M455.105,732.138c-1.632,1.627-3.797,2.523-6.095,2.523l0,0
	c-2.653,0-5.235-1.203-7.087-3.3c-3.521-3.997-3.472-10.153,0.111-13.725l25.678-25.585c1.632-1.627,3.796-2.524,6.094-2.524
	c2.653,0,5.235,1.203,7.085,3.299c3.523,3.999,3.474,10.155-0.114,13.726L455.105,732.138z M530.717,652.98
	c3.363,3.456,3.29,9.529-0.163,13.54c-1.871,2.173-4.453,3.419-7.081,3.419c-2.166,0-4.192-0.854-5.701-2.404l-23.994-24.65
	c-3.364-3.453-3.291-9.527,0.164-13.541c1.871-2.171,4.451-3.415,7.078-3.415c2.167,0,4.193,0.853,5.7,2.403L530.717,652.98z
	 M492.158,672.977c-3.367-3.454-3.295-9.529,0.159-13.54c1.871-2.172,4.452-3.416,7.078-3.416c2.17,0,4.193,0.854,5.702,2.404
	l23.996,24.646c3.362,3.459,3.29,9.532-0.161,13.542c-1.874,2.173-4.454,3.418-7.081,3.418c-2.167,0-4.193-0.854-5.702-2.404
	L492.158,672.977z M529.167,717.398c3.361,3.455,3.289,9.528-0.162,13.539c-1.874,2.173-4.453,3.418-7.081,3.418
	c-2.166,0-4.192-0.853-5.701-2.404l-23.991-24.649c-3.368-3.454-3.297-9.528,0.16-13.541c1.87-2.17,4.452-3.414,7.077-3.414
	c2.169,0,4.195,0.854,5.702,2.404L529.167,717.398z M480.008,740.716l-17.076,18.896c-1.111,1.23-2.645,1.907-4.318,1.907
	c0,0,0,0-0.001,0c-2.21,0-4.424-1.152-6.074-3.161c-2.89-3.522-3.151-8.496-0.599-11.323l17.082-18.894
	c1.109-1.231,2.645-1.909,4.318-1.909c2.21,0,4.424,1.151,6.074,3.159C482.308,732.915,482.57,737.889,480.008,740.716z
	 M514.314,747.035c2.552,2.827,2.291,7.801-0.597,11.323c-1.652,2.01-3.867,3.161-6.076,3.161c-1.675,0-3.209-0.677-4.32-1.907
	l-17.076-18.896c-2.561-2.826-2.298-7.801,0.595-11.324c1.65-2.008,3.865-3.159,6.074-3.159c1.673,0,3.209,0.678,4.319,1.909
	L514.314,747.035z M488.062,747.149c1.12,1.23,1.65,2.813,1.496,4.457l-2.382,25.357c-0.359,3.793-4.202,6.961-8.749,7.213
	c-0.188,0.011-0.372,0.015-0.555,0.015c-2.375,0-4.526-0.865-5.897-2.373c-1.121-1.232-1.653-2.815-1.498-4.459l2.387-25.355
	c0.353-3.797,4.196-6.966,8.748-7.214C484.235,744.645,486.584,745.526,488.062,747.149z M412.292,526.582
	c-2.611,0-4.989-1.715-5.919-4.268c-1.204-3.311,0.393-6.941,3.56-8.094l67.635-24.617c0.646-0.235,1.324-0.355,2.013-0.355
	c2.609,0,4.988,1.714,5.917,4.269c1.205,3.31-0.393,6.941-3.56,8.094l-67.634,24.617
	C413.655,526.463,412.979,526.582,412.292,526.582L412.292,526.582z M482.241,513.849c1.205,3.31-0.241,6.886-3.224,7.973
	l-62.129,22.612c-0.578,0.212-1.184,0.318-1.801,0.318h-0.001c-2.519,0-4.846-1.749-5.795-4.352
	c-1.203-3.311,0.243-6.887,3.226-7.973l62.129-22.612c0.577-0.211,1.185-0.318,1.803-0.318
	C478.966,509.498,481.293,511.246,482.241,513.849z M472.011,542.582l-55.524,20.209c-0.502,0.184-1.03,0.274-1.569,0.274
	c0,0,0,0-0.001,0c-2.394,0-4.653-1.789-5.625-4.455c-1.203-3.311,0.064-6.822,2.824-7.827l55.524-20.209
	c0.502-0.184,1.029-0.275,1.569-0.275c2.394,0,4.655,1.79,5.625,4.456C476.038,538.064,474.772,541.575,472.011,542.582z
	 M596.968,502.85c0.72,1.546,0.797,3.282,0.211,4.885c-0.913,2.516-3.325,4.205-6.003,4.205c-0.744,0-1.479-0.13-2.185-0.387
	l-78.827-26.154c-3.356-1.222-5.069-4.895-3.866-8.205c0.917-2.516,3.327-4.206,6.005-4.206c0.745,0,1.479,0.13,2.186,0.387
	l78.827,26.154C594.965,500.129,596.248,501.304,596.968,502.85z M591.984,521.596c0.653,1.517,0.694,3.225,0.116,4.809
	c-0.929,2.555-3.309,4.269-5.918,4.269c-0.688,0-1.366-0.12-2.013-0.355l-74.552-24.599c-3.218-1.171-4.814-4.804-3.61-8.112
	c0.928-2.553,3.306-4.269,5.917-4.269c0.688,0,1.366,0.119,2.014,0.355l74.552,24.6
	C590.094,518.876,591.317,520.043,591.984,521.596z M512.542,525.932c-3.035-1.104-4.482-4.682-3.28-7.992
	c0.948-2.604,3.276-4.352,5.794-4.352c0.618,0,1.226,0.106,1.804,0.317l69.044,22.594c3.036,1.106,4.484,4.683,3.276,7.992
	c-0.945,2.604-3.273,4.352-5.792,4.352c-0.617,0-1.223-0.106-1.802-0.318L512.542,525.932z M589.179,562.7
	c-0.968,2.667-3.23,4.457-5.624,4.457c-0.54,0-1.066-0.093-1.57-0.276l-62.432-20.188c-2.82-1.025-4.086-4.537-2.885-7.848
	c0.972-2.666,3.231-4.456,5.627-4.456c0.538,0,1.066,0.092,1.57,0.275l62.432,20.188C589.118,555.88,590.384,559.391,589.179,562.7z
	 M1.118,273.667c3.351,25.296,7.644,50.353,11.094,70.487c2.583,15.083,4.814,28.108,6.04,37.541
	c2.807,21.649,6.136,82.094,6.61,97.296c0.021,0.575,0.032,1.082,0.042,1.535l0.104,3.554c0.018,0.503,0.037,1.037,0.052,1.608
	l0.037,0.96c0.035,0.81,0.069,1.652,0.104,2.552l0.068,1.656c0.032,0.79,0.07,1.582,0.11,2.401l0.16,3.672
	c0.024,0.426,0.045,0.804,0.055,1.181l0.108,2.298c0.043,0.788,0.082,1.585,0.122,2.4l0.252,4.996
	c0.031,0.735,0.073,1.524,0.119,2.321l0.157,3.041c0.21,3.992,0.442,8.179,0.687,12.503c0.353,5.933,0.827,13.767,1.373,21.825
	c0.292,4.194,0.594,8.383,0.908,12.502l0.466,6.04c0.245,3.076,0.501,6.096,0.769,9.032l0.254,2.883
	c0.386,4.196,0.814,8.416,1.274,12.566c0.038,0.363,0.082,0.739,0.125,1.111l0.518,4.325c0.068,0.56,0.139,1.12,0.221,1.683
	c0.037,0.346,0.086,0.691,0.136,1.026l0.169,1.264c0.059,0.436,0.118,0.863,0.188,1.289c0.05,0.413,0.111,0.825,0.182,1.216
	c0.044,0.31,0.091,0.609,0.138,0.904l0.079,0.506c0.644,4.066,1.279,7.077,1.945,9.22c0.472,1.536,1.019,3.197,1.624,4.929
	c0.14,0.383,0.264,0.721,0.389,1.072l0.903,2.441c0.249,0.66,0.5,1.305,0.762,1.961c0.261,0.65,0.53,1.309,0.801,1.968
	c0.272,0.662,0.558,1.341,0.855,2.031c1.742,4.073,3.651,8.062,5.668,11.846c0.385,0.732,0.791,1.474,1.208,2.227
	c1.482,2.706,3.117,5.446,4.851,8.134c0.275,0.421,0.546,0.827,0.818,1.235l0.478,0.72c1.087,1.617,2.109,3.066,3.138,4.444
	c2.255,3.034,4.601,5.888,6.97,8.473c1.386,1.505,2.651,2.802,3.877,3.973c0.726,0.688,1.374,1.3,2.034,1.89
	c0.675,0.615,1.382,1.226,2.102,1.823c1.361,1.164,2.849,2.323,4.388,3.419c0.758,0.543,1.521,1.074,2.296,1.583
	c0.506,0.337,1.031,0.675,1.568,0.999c0.458,0.295,0.991,0.619,1.527,0.918c0.504,0.308,1.011,0.592,1.519,0.864
	c0.495,0.271,1.015,0.555,1.536,0.815c1.031,0.527,2.089,1.03,3.123,1.48l0.56,0.242c0.395,0.17,0.79,0.33,1.193,0.483l0.117,0.046
	l0.424,0.424l0.68,0.012c0.59,0.229,1.146,0.428,1.688,0.6c0.503,0.183,1.018,0.344,1.533,0.503c0.072,0.024,0.175,0.059,0.291,0.09
	c0.656,0.196,1.367,0.404,2.09,0.589c16.855,4.391,32.01,6.618,45.029,6.618c19.934,0,35.409-5.209,45.997-15.48
	c0.395-0.383,0.8-0.776,1.194-1.17c2.567-2.526,4.858-4.896,6.989-7.226c0.543-0.573,1.1-1.193,1.664-1.823l0.134-0.149
	c2.036-2.269,3.991-4.552,5.806-6.786c0.589-0.719,1.173-1.459,1.757-2.209c0.805-1.015,1.614-2.062,2.399-3.12
	c0.778-1.051,1.544-2.1,2.3-3.161c0.707-1.007,1.392-1.999,2.065-3.003c0.489-0.728,0.979-1.47,1.457-2.223
	c0.229-0.334,0.491-0.743,0.742-1.163c0.189-0.293,0.434-0.682,0.665-1.059c0.391-0.629,0.78-1.273,1.158-1.931
	c0.938-1.595,1.703-2.951,2.39-4.237c0.365-0.685,0.731-1.381,1.085-2.067l0.155-0.304c0.094-0.187,0.189-0.375,0.28-0.565
	c0.274-0.559,0.562-1.145,0.835-1.729c0.498-1.018,0.979-2.088,1.449-3.159c0.152-0.34,0.303-0.701,0.453-1.065
	c0.211-0.504,0.424-1.027,0.639-1.553l0.063-0.155c0.521-1.306,0.967-2.5,1.371-3.674c0.248-0.722,0.497-1.442,0.733-2.163
	l0.039-0.12c0.16-0.517,0.32-1.034,0.468-1.55c0.116-0.379,0.242-0.808,0.355-1.236c0.74-2.589,1.347-5.263,1.788-7.894
	c0.127-0.683,0.239-1.43,0.339-2.177c0.201-1.405,0.361-2.877,0.471-4.348c0.07-0.957,0.13-1.936,0.188-2.939
	c0.082-1.177,0.141-2.43,0.2-3.72l0.14-3.612c0.071-1.891,0.117-3.851,0.152-5.867c0.012-0.549,0.024-1.078,0.024-1.607l0.035-3.242
	c0.012-2.496,0.012-5.077-0.011-7.716c-0.046-6.783-0.219-13.948-0.514-21.29c-0.058-1.736-0.14-3.502-0.222-5.269
	c-0.021-0.615-0.055-1.264-0.088-1.911c-0.086-1.838-0.18-3.598-0.272-5.346c-0.175-3.193-0.374-6.367-0.596-9.507l-0.208-2.973
	c-0.049-0.708-0.097-1.405-0.156-2.092l-0.011-0.146c-0.09-1.182-0.178-2.364-0.279-3.535c-0.092-1.202-0.198-2.42-0.302-3.628
	c-0.241-2.844-0.5-5.581-0.773-8.13c-0.068-0.714-0.151-1.461-0.233-2.207l-0.245-2.221c-0.185-1.758-0.397-3.486-0.609-5.155
	l-0.208-1.674c-0.225-1.705-0.448-3.336-0.683-4.897c-0.847-5.73-1.573-11.029-2.22-16.191c-2.798-22.234-6.944-63.622-3.291-91.028
	c3.931-29.481,12.984-55.554,21.322-77.17c0.814-2.112,1.705-4.372,2.647-6.765c8.096-20.552,20.328-51.609,21.649-83.316
	c0.046-1.102,0.082-2.24,0.117-3.426c0.162-6.444,0.1-13.99-0.186-22.443c-0.147-4.243-0.368-8.817-0.654-13.597
	c-0.391-6.717-0.925-13.814-1.586-21.092c-0.413-4.502-0.829-8.639-1.271-12.648c-0.848-7.654-1.829-15.227-2.919-22.509
	c-0.562-3.752-1.163-7.465-1.789-11.037c-1.441-8.214-3.019-15.741-4.691-22.373c-0.925-3.664-1.903-7.106-2.91-10.229
	c-0.464-1.439-0.939-2.83-1.415-4.15c-0.541-1.514-13.461-37.436-25.914-51.205c-0.867-0.959-1.714-1.797-2.515-2.485
	c-2.587-2.235-4.722-3.997-6.71-5.54c-10.9-8.435-20.6-12.477-37.068-15.444C167.436,0.72,158.536,0,149.25,0
	c-9.28,0-32.303,0.83-45.64,8.525c-7.797,4.494-17.181,11.952-25.746,20.46c-3.501,3.476-6.782,7.04-9.752,10.593
	c-5.993,7.128-10.663,14.104-13.873,20.729c-3.229,6.649-7.454,15.872-11.894,25.967c-2.169,4.93-4.336,9.949-6.44,14.917
	c-3.333,7.824-6.513,15.576-9.194,22.411c-1.478,3.753-2.796,7.225-3.917,10.315c-1.745,4.759-3.051,8.692-3.88,11.68l-0.412,1.486
	c-0.813,2.933-1.927,6.949-3.199,11.795c-0.678,2.58-1.576,6.028-2.51,9.825c-2.087,8.392-3.957,16.66-5.555,24.572
	c-0.789,3.932-1.48,7.553-2.114,11.073c-1.472,8.294-2.637,16.272-3.467,23.716C-0.354,245.821-0.535,261.164,1.118,273.667z
	 M7.3,229.906l48.786-4.082l3.339-27.06l-48.121,4.071c0.44-2.378,0.916-4.836,1.43-7.415l48.491-3.252l5.94-28.241l-48.062,3.471
	c0.578-2.292,1.12-4.387,1.583-6.153l47.918-2.15l8.65-27.611l-47.948,1.558c0.789-2.112,1.654-4.369,2.587-6.748l51.169-2.337
	l9.64-26.219l-50.13,2.631c1.458-3.415,2.933-6.827,4.416-10.214c4.046,1.368,9.759,2.071,17.101,2.071
	c14.918,0,31.802-2.862,31.972-2.892l1.187-0.203l0.23-1.181c1.059-5.433,9.249-18.436,12.315-22.988l1.032-1.53l-36.799-21.83
	c2.208-2.555,4.571-5.103,7.061-7.614l35.224,24.537l1.031-1.053c9.394-9.588,20.893-14.449,34.177-14.449
	c16.147,0,29.222,7.307,29.353,7.38l1.165,0.662l27.565-28.072c1.6,1.274,3.333,2.716,5.371,4.477
	c0.227,0.194,0.465,0.424,0.703,0.652l-32.244,27.062l0.955,1.315c0.121,0.167,12.083,16.775,12.446,30.004l0.052,1.871
	l46.537-4.586c0.649,2.081,1.287,4.292,1.904,6.622l-45.212,4.189l0.672,2.072c0.044,0.137,4.46,13.763,6.167,20.784l0.347,1.425
	l43.427-2.944c0.417,2.426,0.819,4.906,1.207,7.419l-44.428,1.694l0.173,1.835c0.063,0.677,1.584,16.654,3.139,23.281l0.333,1.419
	l44.16-2.322c0.314,2.91,0.616,5.91,0.914,9.076l-41.189,1.553v24.198l43.035-1.292c0.197,3.459,0.358,6.79,0.482,9.951h-45.074
	v25.743h45.266c-0.017,0.509-0.031,1.034-0.052,1.526c-0.216,5.184-0.758,10.355-1.513,15.478c0.058-1.174,0.059-2.224,0.059-3.062
	v-0.19c0-4.867-3.929-6.602-7.604-6.602c-0.193,0-0.351,0.006-0.468,0.012c-1.594-0.21-13.601-1.725-26.802-1.542
	c-13.354,0.183-13.718,9.42-14.009,16.842c-0.062,1.548-0.125,3.15-0.285,4.658c-0.235,2.208,0.284,4.038,1.543,5.438
	c2.049,2.279,5.788,3.251,12.501,3.251c0.001,0,0.001,0,0.002,0c3.07,0,6.509-0.193,10.15-0.396
	c2.401-0.135,4.892-0.273,7.416-0.365c10.391-0.375,14.631-5.733,16.362-11.207c-1.676,8.916-3.979,17.582-6.522,25.76
	c0.28-2.362-0.237-4.349-1.563-5.899c-2.566-3.002-7.179-3.037-7.374-3.037c-0.086-0.001-10.249-0.086-18.931-0.086
	c-5.113,0-8.726,0.03-10.742,0.086c-5.734,0.165-8.188,6.309-9.685,12.436c-0.131-1.779-0.855-3.456-2.185-4.706l-20.621-19.381
	c-1.302-1.226-3.054-1.901-4.93-1.901c-2.382,0-4.749,1.064-6.493,2.92c-1.535,1.632-2.431,3.698-2.521,5.816
	c-0.094,2.214,0.69,4.221,2.212,5.649l20.617,19.381c1.304,1.227,3.055,1.901,4.93,1.901c0.001,0,0,0,0.001,0
	c2.381,0,4.748-1.064,6.492-2.918c0.598-0.637,1.089-1.332,1.475-2.059c-0.013,0.059-0.025,0.12-0.037,0.178
	c-0.201,0.996-0.392,1.949-0.588,2.828c-0.844,3.798-0.715,6.216,0.404,7.612c0.56,0.698,1.36,1.098,2.196,1.098l0.17-0.004
	c1.081-0.009,11.769-0.087,21.037-0.087c5.606,0,9.619,0.028,11.927,0.084l0.25,0.003c3.612,0,6.717-1.973,9.143-5.621
	c-2.525,7.003-5.054,13.446-7.268,19.068c-0.947,2.406-1.844,4.678-2.663,6.803c-5.697,14.771-11.72,31.614-16.274,50.222
	c0.157-2.742-1.48-5.384-4.19-6.371l-71.904-26.171c-0.706-0.257-1.441-0.387-2.185-0.387c-2.676,0-5.089,1.689-6.004,4.205
	c-1.205,3.311,0.509,6.984,3.818,8.188l71.904,26.171c0.705,0.256,1.44,0.387,2.185,0.387l0,0c2.563,0,4.868-1.558,5.865-3.896
	c-1.984,8.373-3.667,17.093-4.874,26.145c-3.627,27.203,0.205,67.47,3.023,90.412h-43.501l0.407,2.077
	c0.464,2.367,0.939,4.813,1.416,7.342c1.328,6.975,2.513,13.859,3.52,20.467l0.226,1.479h42.063l0.087,0.788
	c0.08,0.726,0.16,1.441,0.228,2.159c0.206,1.927,0.399,3.968,0.585,6.056h-41.707l0.242,1.957c0.936,7.545,1.641,14.84,2.094,21.682
	l0.108,1.628h41.061c0.063,1.212,0.129,2.424,0.186,3.642c0.038,0.726,0.07,1.341,0.091,1.955c0.053,1.151,0.098,2.276,0.144,3.405
	h-41.047l0.046,1.788c0.19,7.355,0.078,14.438-0.334,21.046l-0.116,1.852h42.045c0.01,2.016,0.013,4.001,0.003,5.934l-0.033,3.069
	h-42.894l-0.202,1.512c-2.397,18.005-7.44,32.227-14.988,42.27l-0.832,1.106l27.526,32.813c-0.272,0.3-0.542,0.605-0.821,0.9
	c-1.693,1.85-3.479,3.71-5.424,5.66l-27.557-32.842l-1.324,1.021c-6.501,5.021-14.171,7.676-22.179,7.676
	c-5.456,0-10.286-0.948-14.766-2.898l-1.193-0.52l-29.084,34.66l-0.227-0.099c-0.751-0.339-1.516-0.708-2.279-1.099
	c-0.479-0.239-0.934-0.488-1.389-0.737c-0.455-0.244-0.884-0.485-1.312-0.747l-0.104-0.061c-0.447-0.248-0.893-0.52-1.329-0.799
	c-0.41-0.248-0.77-0.479-1.123-0.711c0.176-0.533,0.441-1.039,0.817-1.485l28.438-33.881l-1.218-1.128
	c-9.603-8.896-16.881-24.462-21.635-46.268l-0.299-1.371h-50.86c-0.326-2.994-0.63-6.003-0.917-9.003h50.077l-0.33-2.023
	c-0.887-5.435-1.672-11.436-2.333-17.833l-0.162-1.563H34.996c-0.224-2.981-0.441-5.981-0.654-8.992H83.27l-0.134-1.867
	c-0.489-6.833-0.848-14.14-1.065-21.718l-0.047-1.692H32.747c-0.172-3.08-0.339-6.087-0.493-8.991h49.603l-0.017-1.76
	c-0.082-8.123-0.02-16.721,0.186-25.557c0.069-2.914,0.174-5.763,0.312-8.467l0.093-1.832h-51.82
	c-0.645-17.874-3.811-74.697-6.599-96.21c-1.241-9.551-3.481-22.63-6.076-37.773c-3.44-20.086-7.724-45.083-11.06-70.269
	C5.322,261.15,5.468,246.685,7.3,229.906z M20.735,233.814c2.342-0.143,5.205-0.216,8.51-0.216c7.628,0,15.496,0.388,17.059,0.47
	c0.429-0.104,1.219-0.257,2.153-0.257c1.943,0,3.568,0.657,4.697,1.901c1.398,1.54,1.956,3.881,1.658,6.958
	c-0.206,2.121-0.2,4.166-0.193,6.143c0.013,4.276,0.024,7.97-2.278,10.28c-1.341,1.343-3.256,1.996-5.856,1.996H14.553l-0.186-0.041
	c-2.214-0.489-6.323-2.913-6.023-8.585C8.652,246.635,9.294,234.51,20.735,233.814z M16.567,268.942
	c7.085-0.85,29.704-1.413,31.711-1.461c0.155-0.02,0.391-0.043,0.685-0.043c2.745,0,5.741,1.902,5.925,7.24
	c0.031,0.896,0.108,1.907,0.189,2.985c0.387,5.105,0.868,11.46-2.395,15.089c-1.48,1.648-3.548,2.525-6.144,2.605
	c-1.865,0.057-4.393,0.315-7.069,0.59c-4.124,0.421-8.796,0.9-13.146,0.9c-0.012,0-0.023,0-0.036,0
	c-3.552,0-14.186-0.025-15.305-7.625l-0.324-2.16c-1.028-6.768-1.84-12.114,0.671-15.416
	C12.485,270.13,14.247,269.221,16.567,268.942z M178.804,67.247l-22.841,16.707c-1.199,0.876-2.644,1.34-4.175,1.34
	c-2.688,0-5.319-1.403-7.038-3.754c-1.322-1.808-1.958-3.967-1.789-6.079c0.177-2.21,1.203-4.105,2.886-5.338l22.841-16.706
	c1.199-0.877,2.644-1.34,4.177-1.34c2.686,0,5.317,1.403,7.037,3.753C182.691,59.643,182.199,64.765,178.804,67.247z
	 M178.804,97.043l-22.841,16.707c-1.199,0.876-2.644,1.339-4.175,1.339c-2.688,0-5.319-1.403-7.038-3.753
	c-1.322-1.808-1.958-3.968-1.789-6.08c0.177-2.21,1.203-4.105,2.886-5.337l22.841-16.706c1.199-0.877,2.644-1.341,4.177-1.341
	c2.686,0,5.317,1.403,7.037,3.754C182.691,89.439,182.199,94.561,178.804,97.043z M147.479,143.615
	c-2.686,0-5.317-1.403-7.037-3.754c-1.322-1.808-1.957-3.967-1.788-6.079c0.177-2.21,1.202-4.105,2.886-5.338l22.841-16.706
	c1.199-0.877,2.643-1.34,4.175-1.34c2.688,0,5.318,1.403,7.037,3.753c2.789,3.813,2.296,8.935-1.097,11.417l-22.841,16.707
	C150.457,143.151,149.013,143.615,147.479,143.615z M105.592,136.911c1.293,1.768,2.004,3.825,2.003,5.79
	c-0.001,2.136-0.87,3.997-2.385,5.105l-19.397,14.188c-0.964,0.704-2.141,1.076-3.405,1.076c-2.563,0-5.282-1.537-7.092-4.013
	c-1.294-1.768-2.005-3.823-2.004-5.788c0-2.136,0.87-3.998,2.385-5.105l19.397-14.187c0.963-0.706,2.141-1.078,3.405-1.078
	C101.064,132.898,103.782,134.436,105.592,136.911z M93.703,159.448c2.688,0,5.318,1.403,7.038,3.754
	c1.322,1.809,1.958,3.968,1.789,6.081c-0.177,2.21-1.203,4.104-2.886,5.336l-22.841,16.707c-1.199,0.876-2.644,1.34-4.177,1.34
	c-2.686,0-5.317-1.403-7.037-3.753c-2.789-3.813-2.295-8.935,1.098-11.417l22.841-16.706
	C90.727,159.913,92.17,159.448,93.703,159.448z M90.45,193.137c2.688,0,5.318,1.403,7.037,3.752c1.323,1.81,1.958,3.968,1.79,6.081
	c-0.177,2.21-1.203,4.106-2.886,5.337l-22.841,16.706c-1.199,0.877-2.644,1.34-4.177,1.34c-2.687,0-5.317-1.402-7.037-3.752
	c-2.788-3.814-2.295-8.936,1.098-11.417l22.841-16.706C87.473,193.601,88.917,193.137,90.45,193.137z M99.276,230.914
	c-0.177,2.21-1.203,4.104-2.886,5.336l-22.841,16.707c-1.199,0.876-2.644,1.34-4.177,1.34c-2.687,0-5.317-1.403-7.037-3.754
	c-2.788-3.813-2.295-8.935,1.098-11.417l22.841-16.706c1.199-0.877,2.643-1.341,4.176-1.341c2.688,0,5.318,1.403,7.037,3.753
	C98.81,226.642,99.445,228.802,99.276,230.914z M87.214,250.813c2.688,0,5.318,1.403,7.037,3.752
	c1.323,1.81,1.958,3.968,1.789,6.081c-0.177,2.21-1.203,4.106-2.886,5.337l-22.84,16.706c-1.199,0.877-2.644,1.34-4.177,1.34
	c-2.687,0-5.317-1.402-7.037-3.753c-2.788-3.814-2.295-8.936,1.098-11.417l22.841-16.706
	C84.237,251.276,85.682,250.813,87.214,250.813z M68.07,307.623c-2.537,0-5.256-1.563-7.097-4.081
	c-1.286-1.758-2.015-3.788-2.053-5.716c-0.042-2.127,0.783-3.968,2.265-5.052l18.575-13.586c0.911-0.667,2.028-1.02,3.229-1.02
	c2.536,0,5.255,1.565,7.096,4.081c2.835,3.878,2.744,8.608-0.21,10.769l-18.577,13.586C70.387,307.27,69.27,307.623,68.07,307.623z
	 M174.129,142.121c2.788,3.813,2.296,8.934-1.098,11.417l-22.841,16.706c-1.199,0.877-2.643,1.339-4.176,1.339
	c-2.688,0-5.318-1.402-7.037-3.752c-1.322-1.809-1.958-3.968-1.789-6.081c0.177-2.21,1.202-4.105,2.885-5.336l22.841-16.706
	c1.199-0.878,2.643-1.341,4.177-1.341C169.779,138.367,172.41,139.771,174.129,142.121z M169.927,184.558l-22.841,16.706
	c-1.199,0.877-2.643,1.34-4.176,1.34c-2.688,0-5.318-1.402-7.037-3.753c-1.322-1.808-1.958-3.968-1.789-6.081
	c0.177-2.209,1.202-4.105,2.886-5.336l22.84-16.706c1.199-0.878,2.643-1.341,4.177-1.341c2.687,0,5.317,1.403,7.037,3.754
	C173.814,176.954,173.321,182.075,169.927,184.558z M168.244,212.083l-22.842,16.708c-1.198,0.875-2.642,1.339-4.176,1.339
	c-2.687,0-5.317-1.403-7.036-3.754c-1.322-1.809-1.958-3.967-1.789-6.079c0.177-2.21,1.203-4.105,2.886-5.338l22.841-16.706
	c1.199-0.877,2.644-1.341,4.176-1.341c2.687,0,5.318,1.403,7.037,3.753C172.129,204.479,171.637,209.602,168.244,212.083z
	 M138.029,261.088c-2.687,0-5.318-1.402-7.037-3.752c-1.322-1.809-1.958-3.969-1.789-6.081c0.177-2.21,1.203-4.105,2.886-5.336
	l22.84-16.706c1.199-0.878,2.643-1.341,4.177-1.341c2.686,0,5.317,1.403,7.037,3.754c2.789,3.813,2.296,8.934-1.098,11.417
	l-22.84,16.706C141.006,260.625,139.562,261.088,138.029,261.088z M162.648,272.099l-22.841,16.706
	c-1.199,0.877-2.643,1.34-4.176,1.34c-2.687,0-5.317-1.402-7.037-3.753c-1.322-1.808-1.958-3.968-1.789-6.081
	c0.177-2.209,1.202-4.105,2.886-5.336l22.84-16.706c1.199-0.878,2.643-1.341,4.177-1.341c2.686,0,5.317,1.403,7.037,3.753
	C166.534,264.495,166.042,269.616,162.648,272.099z M127.206,316.124c-1.323-1.809-1.958-3.968-1.788-6.081
	c0.177-2.21,1.202-4.105,2.886-5.336l22.84-16.706c1.199-0.877,2.644-1.34,4.177-1.34c2.686,0,5.317,1.403,7.037,3.753
	c2.789,3.813,2.296,8.934-1.098,11.417l-22.84,16.706c-1.198,0.877-2.643,1.34-4.176,1.34
	C131.556,319.877,128.925,318.475,127.206,316.124z M145.886,85.838c3.063,2.879,2.925,8.022-0.311,11.465
	c-1.745,1.855-4.111,2.919-6.494,2.919l0,0c-1.875,0-3.626-0.675-4.93-1.9l-20.618-19.382c-1.521-1.429-2.307-3.435-2.211-5.65
	c0.091-2.118,0.987-4.182,2.522-5.816c1.744-1.855,4.11-2.919,6.492-2.919c1.876,0,3.628,0.675,4.931,1.9L145.886,85.838z
	 M147.096,67.811c-1.603,1.434-3.667,2.291-5.521,2.291c-0.001,0-0.001,0-0.001,0c-1.084,0-2.055-0.296-2.809-0.858l-12.167-9.077
	c-0.913-0.681-1.445-1.702-1.499-2.873c-0.076-1.675,0.816-3.473,2.445-4.931c1.602-1.434,3.666-2.291,5.521-2.291
	c1.085,0,2.057,0.296,2.809,0.858l12.169,9.078c0.912,0.681,1.444,1.701,1.496,2.871C149.614,64.555,148.724,66.352,147.096,67.811z
	 M200.227,159.706C200.226,159.706,200.227,159.706,200.227,159.706c-1.876,0-3.628-0.675-4.932-1.9l-20.617-19.382
	c-1.521-1.428-2.306-3.435-2.212-5.649c0.09-2.118,0.987-4.183,2.522-5.816c1.743-1.855,4.11-2.919,6.492-2.919
	c1.876,0,3.628,0.675,4.93,1.9l20.621,19.382c3.063,2.879,2.923,8.022-0.312,11.465
	C204.975,158.642,202.608,159.706,200.227,159.706z M199.254,124.638c-1.554,0-3.011-0.577-4.102-1.625l-15.687-15.076
	c-2.478-2.379-2.431-6.557,0.102-9.314c1.349-1.469,3.205-2.311,5.09-2.311c1.555,0,3.011,0.577,4.101,1.625l15.689,15.076
	c2.474,2.379,2.429,6.556-0.103,9.314C202.995,123.795,201.14,124.638,199.254,124.638z M200.226,193.891
	c-1.875,0-3.627-0.675-4.931-1.902l-20.617-19.38c-1.521-1.428-2.306-3.436-2.212-5.649c0.09-2.118,0.987-4.184,2.522-5.816
	c1.743-1.856,4.11-2.92,6.492-2.92c1.876,0,3.628,0.675,4.93,1.901l20.621,19.38c3.063,2.879,2.923,8.023-0.312,11.467
	C204.975,192.827,202.608,193.891,200.226,193.891C200.226,193.891,200.227,193.891,200.226,193.891z M197.122,219.92
	c-1.875,0-3.626-0.675-4.93-1.901l-20.618-19.381c-1.521-1.428-2.306-3.435-2.212-5.649c0.091-2.118,0.987-4.184,2.522-5.816
	c1.743-1.856,4.11-2.92,6.492-2.92c1.876,0,3.628,0.674,4.93,1.901l20.621,19.381c3.063,2.879,2.924,8.023-0.312,11.467
	C201.871,218.856,199.504,219.92,197.122,219.92C197.122,219.92,197.123,219.92,197.122,219.92z M164.481,222.154
	c0.091-2.118,0.987-4.183,2.521-5.816c1.744-1.855,4.11-2.919,6.493-2.919c1.876,0,3.628,0.675,4.93,1.9l20.621,19.382
	c3.063,2.879,2.924,8.022-0.312,11.466c-1.745,1.855-4.111,2.919-6.492,2.919c-0.001,0,0,0-0.001,0c-1.875,0-3.626-0.675-4.93-1.9
	l-20.617-19.382C165.171,226.375,164.387,224.369,164.481,222.154z M160.591,279.303c0.09-2.118,0.986-4.182,2.521-5.816
	c1.744-1.855,4.11-2.919,6.492-2.919c1.876,0,3.628,0.675,4.93,1.9l20.621,19.382c3.063,2.879,2.923,8.022-0.312,11.465
	c-1.745,1.855-4.111,2.919-6.492,2.919c0,0,0,0-0.001,0c-1.875,0-3.627-0.675-4.931-1.901l-20.617-19.38
	C161.282,283.525,160.497,281.518,160.591,279.303z M119.276,92.952l20.62,19.382c3.063,2.879,2.924,8.023-0.311,11.466
	c-1.745,1.854-4.111,2.919-6.493,2.919c0,0,0,0,0,0c-1.875,0-3.627-0.675-4.931-1.9l-20.618-19.382
	c-1.52-1.428-2.307-3.435-2.211-5.649c0.091-2.118,0.987-4.183,2.522-5.816c1.744-1.855,4.11-2.919,6.493-2.919
	C116.222,91.052,117.974,91.727,119.276,92.952z M111.948,119.538c1.876,0,3.628,0.675,4.931,1.901l20.62,19.381
	c3.063,2.879,2.924,8.023-0.312,11.467c-1.745,1.855-4.111,2.919-6.493,2.919c0,0,0,0,0,0c-1.875,0-3.627-0.675-4.932-1.901
	l-20.617-19.381c-1.52-1.428-2.307-3.435-2.211-5.649c0.091-2.118,0.987-4.184,2.522-5.816
	C107.2,120.602,109.566,119.538,111.948,119.538z M103.285,152.752c1.744-1.855,4.11-2.919,6.493-2.919
	c1.876,0,3.628,0.675,4.93,1.9l20.62,19.382c3.063,2.879,2.924,8.022-0.312,11.465c-1.745,1.855-4.111,2.919-6.493,2.919
	c0,0,0,0,0,0c-1.876,0-3.627-0.675-4.932-1.9l-20.617-19.382c-1.52-1.428-2.307-3.435-2.211-5.649
	C100.854,156.45,101.75,154.385,103.285,152.752z M133.643,202.104c3.063,2.879,2.924,8.022-0.312,11.467
	c-1.745,1.855-4.112,2.919-6.494,2.919c-1.876,0-3.626-0.675-4.931-1.902l-20.618-19.38c-1.52-1.428-2.306-3.436-2.21-5.649
	c0.09-2.118,0.987-4.184,2.522-5.816c1.744-1.856,4.11-2.92,6.492-2.92c1.876,0,3.627,0.675,4.93,1.901L133.643,202.104z
	 M123.641,243.67c-1.876,0-3.627-0.675-4.931-1.901l-20.617-19.38c-1.521-1.428-2.307-3.436-2.211-5.649
	c0.091-2.118,0.987-4.184,2.522-5.817c1.744-1.856,4.11-2.92,6.492-2.92c1.876,0,3.628,0.675,4.931,1.901l20.62,19.381
	c3.063,2.879,2.924,8.022-0.312,11.467C128.39,242.605,126.023,243.67,123.641,243.67z M128.924,272.359
	c-1.744,1.855-4.111,2.919-6.494,2.919c-1.876,0-3.627-0.675-4.932-1.9l-20.617-19.382c-1.521-1.428-2.307-3.435-2.211-5.649
	c0.091-2.118,0.987-4.183,2.522-5.816c1.744-1.854,4.11-2.919,6.492-2.919c1.876,0,3.628,0.675,4.931,1.9l20.62,19.382
	C132.299,263.773,132.16,268.917,128.924,272.359z M126.347,301.178c-1.745,1.856-4.111,2.92-6.493,2.92
	c-1.876,0-3.628-0.674-4.932-1.901l-20.617-19.381c-1.52-1.429-2.306-3.435-2.211-5.65c0.09-2.118,0.987-4.183,2.522-5.816
	c1.744-1.856,4.11-2.92,6.492-2.92c1.876,0,3.628,0.675,4.93,1.901l20.621,19.382C129.722,292.592,129.582,297.735,126.347,301.178z
	 M114.042,329.029c-1.876,0-3.628-0.675-4.932-1.901l-20.617-19.38c-1.52-1.43-2.306-3.436-2.21-5.649
	c0.091-2.118,0.987-4.184,2.521-5.817c1.744-1.856,4.11-2.92,6.493-2.92c1.876,0,3.627,0.675,4.93,1.902l20.62,19.38
	c3.062,2.879,2.922,8.022-0.312,11.466C118.79,327.965,116.424,329.029,114.042,329.029z M166.825,527.129c0,0,0,0-0.001,0
	c-2.297,0-4.461-0.896-6.094-2.523l-25.672-25.586c-3.586-3.57-3.637-9.727-0.113-13.726c1.85-2.097,4.431-3.299,7.084-3.299
	c2.298,0,4.463,0.897,6.094,2.523l25.678,25.585c3.582,3.572,3.631,9.729,0.11,13.725
	C172.06,525.926,169.478,527.129,166.825,527.129z M141.051,511.287c2.298,0,4.463,0.897,6.094,2.523l25.678,25.585
	c3.581,3.571,3.631,9.729,0.11,13.725c-1.85,2.099-4.432,3.301-7.086,3.301c0,0,0,0-0.001,0c-2.297,0-4.462-0.896-6.094-2.523
	l-25.672-25.586c-3.586-3.57-3.637-9.727-0.113-13.726C135.817,512.489,138.398,511.287,141.051,511.287z M138.649,563.2
	c-3.586-3.57-3.637-9.727-0.113-13.726c1.849-2.097,4.432-3.3,7.083-3.3c2.298,0,4.463,0.897,6.094,2.525l25.679,25.585
	c3.582,3.57,3.63,9.728,0.11,13.724c-1.85,2.098-4.433,3.301-7.087,3.301l0,0c-2.298,0-4.463-0.896-6.095-2.523L138.649,563.2z
	 M112.706,484.979c1.508-1.551,3.533-2.404,5.701-2.404c2.628,0,5.207,1.245,7.079,3.416c3.455,4.013,3.527,10.088,0.162,13.541
	l-23.993,24.65c-1.509,1.55-3.534,2.403-5.702,2.403c-2.627,0-5.208-1.246-7.081-3.418c-3.452-4.011-3.525-10.085-0.163-13.54
	L112.706,484.979z M103.277,554.274c-1.509,1.551-3.534,2.403-5.7,2.403c-2.627,0-5.208-1.245-7.082-3.417
	c-3.451-4.01-3.523-10.084-0.162-13.542l23.997-24.646c1.508-1.55,3.532-2.405,5.701-2.405c2.627,0,5.207,1.245,7.079,3.418
	c3.455,4.011,3.526,10.086,0.16,13.539L103.277,554.274z M114.256,549.396c1.508-1.55,3.533-2.403,5.702-2.403
	c2.625,0,5.207,1.245,7.078,3.415c3.457,4.012,3.528,10.087,0.16,13.54l-23.991,24.65c-1.509,1.551-3.534,2.404-5.701,2.404
	c-2.627,0-5.208-1.245-7.081-3.418c-3.452-4.011-3.524-10.084-0.162-13.54L114.256,549.396z M140.013,586.039
	c1.65-2.009,3.863-3.159,6.073-3.159c1.673,0,3.208,0.678,4.319,1.908l17.083,18.895c2.552,2.827,2.289,7.801-0.6,11.323
	c-1.648,2.008-3.863,3.161-6.074,3.161c-0.001,0-0.001,0-0.001,0c-1.673,0-3.207-0.678-4.319-1.908l-17.076-18.895
	C136.857,594.537,137.119,589.562,140.013,586.039z M122.194,584.788c1.112-1.23,2.646-1.908,4.32-1.908
	c2.21,0,4.423,1.15,6.073,3.159c2.895,3.523,3.156,8.498,0.596,11.323l-17.076,18.896c-1.112,1.23-2.647,1.908-4.32,1.908
	c-2.211,0-4.425-1.152-6.076-3.162c-2.889-3.521-3.15-8.495-0.597-11.322L122.194,584.788z M137.814,601.437
	c4.552,0.247,8.396,3.417,8.749,7.214l2.387,25.355c0.155,1.644-0.376,3.227-1.497,4.458c-1.373,1.509-3.523,2.374-5.898,2.374
	c-0.182,0-0.367-0.005-0.554-0.015c-4.548-0.252-8.392-3.42-8.75-7.213l-2.381-25.358c-0.155-1.643,0.375-3.226,1.496-4.456
	C132.842,602.172,135.191,601.292,137.814,601.437z M207.136,383.229c-0.688,0-1.365-0.119-2.012-0.355l-67.634-24.617
	c-3.167-1.153-4.764-4.784-3.559-8.095c0.929-2.553,3.308-4.268,5.917-4.268c0.688,0,1.365,0.119,2.013,0.355l67.634,24.618
	c3.167,1.152,4.763,4.783,3.56,8.094C212.125,381.514,209.746,383.229,207.136,383.229L207.136,383.229z M142.978,366.145
	c0.618,0,1.225,0.107,1.802,0.318l62.128,22.613c2.982,1.085,4.429,4.663,3.225,7.972c-0.947,2.603-3.276,4.352-5.793,4.352l0,0
	c-0.618,0-1.224-0.107-1.803-0.318l-62.128-22.612c-2.981-1.086-4.428-4.664-3.224-7.973
	C138.133,367.893,140.46,366.145,142.978,366.145z M144.592,391.402c0.971-2.666,3.231-4.456,5.626-4.456
	c0.539,0,1.067,0.092,1.569,0.275l55.523,20.209c2.762,1.005,4.027,4.516,2.824,7.827c-0.971,2.666-3.231,4.456-5.625,4.456
	c-0.001,0-0.001,0-0.001,0c-0.539,0-1.067-0.092-1.569-0.275l-55.524-20.209C144.654,398.222,143.388,394.711,144.592,391.402z
	 M26.112,356.176l78.827-26.154c0.704-0.257,1.44-0.387,2.185-0.387c2.676,0,5.089,1.69,6.004,4.205
	c1.203,3.311-0.51,6.984-3.866,8.206L30.435,368.2c-0.705,0.258-1.44,0.387-2.185,0.387c-2.676,0-5.089-1.69-6.003-4.206
	c-0.584-1.603-0.508-3.339,0.212-4.885C23.18,357.95,24.461,356.776,26.112,356.176z M30.936,374.94l74.553-24.599
	c0.647-0.236,1.325-0.355,2.012-0.355c2.611,0,4.989,1.715,5.917,4.268c1.206,3.309-0.392,6.942-3.609,8.113l-74.554,24.599
	c-0.646,0.236-1.323,0.355-2.012,0.355c-2.609,0-4.988-1.714-5.917-4.268c-0.577-1.585-0.537-3.292,0.116-4.809
	C28.109,376.69,29.332,375.523,30.936,374.94z M37.842,405.173c-0.579,0.211-1.185,0.317-1.803,0.317
	c-2.518,0-4.845-1.748-5.792-4.352c-1.206-3.31,0.24-6.886,3.277-7.992l69.044-22.594c0.579-0.211,1.186-0.317,1.804-0.317
	c2.519,0,4.846,1.748,5.794,4.352c1.202,3.311-0.244,6.887-3.28,7.993L37.842,405.173z M33.129,411.5l62.433-20.188
	c0.503-0.184,1.031-0.275,1.57-0.275c2.395,0,4.656,1.79,5.626,4.456c1.203,3.31-0.064,6.821-2.885,7.847l-62.433,20.188
	c-0.502,0.184-1.03,0.276-1.57,0.276c-2.394,0-4.654-1.791-5.625-4.457C29.042,416.039,30.308,412.527,33.129,411.5z"/>
</svg>
